# xmcd
#
# Track frame offsets: 
#        150
#        11939
#        27978
#        43011
#        54888
#        69703
#        81154
#        91842
#        105200
#        123053
#        133014
#        146591
#        162665
#        179790
#        196249
#
# Disc length: 2867 seconds
#
# Revision: 1
# Processed by: cddbd v1.5.1PL2 Copyright (c) Steve Scherf et al.
# Submitted via: ExactAudioCopy v0.95b3
#
DISCID=cc0b310f
DTITLE=Pavol Hammel - Pavol Hammel - Gold
DYEAR=2005
DGENRE=Pop
TTITLE0=Ucitelka tanca
TTITLE1=Zvonky, zvonte
TTITLE2=Medulienka
TTITLE3=Po pismenku
TTITLE4=Cirkus leto
TTITLE5=Cez plece (Uz sa chlapec z detstva pobera)
TTITLE6=Mladost
TTITLE7=ZRPS (Pri poslednom litri vina)
TTITLE8=Margareta Steiffova
TTITLE9=Balada o smutnom Janovi
TTITLE10=Prvy bozk (Co sa stane, ked ju pobozkam)
TTITLE11=Podnajom
TTITLE12=Ked pavuk svoje siete dotka
TTITLE13=Dnes uz viem
TTITLE14=Lalia polna
EXTD=
EXTT0=
EXTT1=
EXTT2=
EXTT3=
EXTT4=
EXTT5=
EXTT6=
EXTT7=
EXTT8=
EXTT9=
EXTT10=
EXTT11=
EXTT12=
EXTT13=
EXTT14=
PLAYORDER=
